# AST/ASF file generated using VICON BodyLanguage
# -----------------------------------------------
:version 1.10
:name VICON
:units
  mass 1.0
  length 0.45
  angle deg
:documentation
   .ast/.asf automatically generated from VICON data using
   VICON BodyBuilder and BodyLanguage model FoxedUp or BRILLIANT.MOD
:root
   order TX TY TZ RX RY RZ
   axis XYZ
   position 0 0 0  
   orientation 0 0 0 
:bonedata
  begin
     id 1 
     name lhipjoint
     direction 0.734343 -0.627749 0.258209 
     length 2.5437 
     axis 0 0 0  XYZ
  end
  begin
     id 2 
     name lfemur
     direction 0.34202 -0.939693 0  
     length 6.7391  
     axis 0 0 20  XYZ
    dof rx ry rz
    limits (-160.0 20.0)
           (-70.0 70.0)
           (-60.0 70.0)
  end
  begin
     id 3 
     name ltibia
     direction 0.34202 -0.939693 0   
     length 7.21536   
     axis 0 0 20   XYZ
    dof rx
    limits (-10.0 170.0)
  end
  begin
     id 4 
     name lfoot
     direction 0.0489572 -0.134509 0.989702   
     length 1.61313   
     axis -90 7.62852e-016 20   XYZ
    dof rx rz
    limits (-45.0 90.0)
           (-70.0 20.0)
  end
  begin
     id 5 
     name ltoes
     direction 1.53451e-011 -4.21692e-011 1   
     length 0.823104   
     axis -90 7.62852e-016 20   XYZ
    dof rx
    limits (-90.0 20.0)
  end
  begin
     id 6 
     name rhipjoint
     direction -0.746398 -0.615468 0.253157   
     length 2.59446  
     axis 0 0 0  XYZ 
  end
  begin
     id 7 
     name rfemur
     direction -0.34202 -0.939693 0   
     length 6.7075   
     axis 0 0 -20   XYZ
    dof rx ry rz
    limits (-160.0 20.0)
           (-70.0 70.0)
           (-70.0 60.0)
  end
  begin
     id 8 
     name rtibia
     direction -0.34202 -0.939693 0   
     length 7.27262   
     axis 0 0 -20   XYZ
    dof rx
    limits (-10.0 170.0)
 end
 begin
     id 9 
     name rfoot
     direction -0.0455203 -0.125066 0.991104   
     length 1.91095  
     axis -90 -7.62852e-016 -20   XYZ
    dof rx rz
    limits (-45.0 90.0)
           (-20.0 70.0)
  end
  begin
     id 10 
     name rtoes
     direction -1.53601e-011 -4.21913e-011 1   
     length 0.969037   
     axis -90 -7.62852e-016 -20   XYZ
    dof rx
    limits (-90.0 20.0)
  end
  begin
     id 11 
     name lowerback
     direction 0.0181546 0.999122 -0.0377542   
     length 1.99916   
     axis 0 0 0   XYZ
    dof rx ry rz
    limits (-20.0 45.0)
           (-30.0 30.0)
           (-30.0 30.0)
  end
  begin
     id 12 
     name upperback
     direction 0.0203486 0.99589 0.0882534   
     length 1.951   
     axis 0 0 0   XYZ
    dof rx ry rz
    limits (-20.0 45.0)
           (-30.0 30.0)
           (-30.0 30.0)
  end
  begin
     id 13 
     name thorax
     direction 0.0131685 0.994241 0.106355   
     length 1.97461   
     axis 0 0 0   XYZ
    dof rx ry rz
    limits (-20.0 45.0)
           (-30.0 30.0)
           (-30.0 30.0)
  end
  begin
     id 14 
     name lowerneck
     direction -0.0281395 0.999325 0.023617   
     length 1.7959   
     axis 0 0 0   XYZ
    dof rx ry rz
    limits (-20.0 45.0)
           (-30.0 30.0)
           (-30.0 30.0)
  end
  begin
     id 15 
     name upperneck
     direction 0.0288721 0.991984 -0.123019   
     length 1.79917   
     axis 0 0 0   XYZ
    dof rx ry rz
    limits (-20.0 45.0)
           (-30.0 30.0)
           (-30.0 30.0)
  end
  begin
     id 16
     name head
     direction 0.0133797 0.998944 -0.0439492  
     length 1.80902  
     axis 0 0 0   XYZ
    dof rx ry rz
    limits (-20.0 45.0)
           (-30.0 30.0)
           (-30.0 30.0)
  end
  begin
     id 17 
     name lclavicle
     direction 0.919195 0.377107 0.113449  
     length 3.17815  
     axis 0 0 0   XYZ
    dof ry rz
    limits (-20.0 10.0)
           (0.0 20.0)
  end
  begin
     id 18 
     name lhumerus
     direction 1 -4.48959e-011 2.13129e-027   
     length 4.84137   
     axis 180 -30 -90   XYZ
    dof rx ry rz
    limits (-60.0 90.0)
           (-90.0 90.0)
           (-90.0 90.0)
  end
  begin
     id 19
     name lradius
     direction 1 -4.48957e-011 -6.30627e-028   
     length 3.2452   
     axis 180 -30 -90   XYZ
    dof rx
    limits (-10.0 170.0)
  end
  begin
     id 20
     name lwrist
     direction 1 -4.4901e-011 9.13299e-027   
     length 1.6226   
     axis -6.84618e-015 90 90   XYZ
    dof ry
    limits (-180.0 0.0)
 end
  begin
     id 21 
     name lhand
     direction 1 -4.48816e-011 1.82293e-026   
     length 0.521221   
     axis -1.16502e-014 90 90   XYZ
    dof rx rz
    limits (-90.0 90.0)
           (-45.0 45.0)
  end
  begin
     id 22 
     name lfingers
     direction 1 -4.49108e-011 3.65687e-026   
     length 0.420221   
     axis -2.33008e-014 90 90   XYZ
    dof rx
    limits (0.0 90.0)
  end
  begin
     id 23
     name lthumb
     direction 0.707107 -6.34943e-011 0.707107   
     length 0.603356   
     axis -90 45 5.69224e-014   XYZ
    dof rx rz
    limits (-45.0 45.0)
           (-45.0 45.0)
  end
  begin
     id 24 
     name rclavicle
     direction -0.90847 0.38596 0.160368   
     length 3.12973  
     axis 0 0 0   XYZ 
    dof ry rz
    limits (-10.0 20.0)
           (-20.0 0.0)
  end
  begin
     id 25 
     name rhumerus
     direction -1 -4.48974e-011 4.47268e-028  
     length 4.72284   
     axis 180 30 90   XYZ
    dof rx ry rz
    limits (-90.0 60.0)
           (-90.0 90.0)
           (-90.0 90.0)
  end
  begin
     id 26 
     name rradius
     direction -1 -4.48969e-011 3.43203e-027   
     length 3.23459   
     axis 180 30 90   XYZ
    dof rx
    limits (-10.0 170.0)
  end
  begin
     id 27 
     name rwrist
     direction -1 -4.48969e-011 9.12911e-027   
     length 1.6173   
     axis -6.84618e-015 -90 -90   XYZ
    dof ry
    limits (-180.0 0.0)
  end
  begin
     id 28
     name rhand
     direction -1 -4.49194e-011 1.83006e-026   
     length 0.307416   
     axis -1.16502e-014 -90 -90   XYZ
    dof rx rz
    limits (-90.0 90.0)
           (-45.0 45.0)
  end
  begin
     id 29
     name rfingers
     direction -1 -4.48423e-011 3.63103e-026   
     length 0.247847   
     axis -2.33008e-014 -90 -90   XYZ
    dof rx
    limits (0.0 90.0)
  end
  begin
     id 30
     name rthumb
     direction -0.707107 -6.34802e-011 0.707107   
     length 0.35586   
     axis -90 -45 -5.69224e-014   XYZ
    dof rx rz
    limits (-45.0 45.0)
           (-45.0 45.0)
  end
:hierarchy
  begin
    root lhipjoint rhipjoint lowerback
    lhipjoint lfemur
    lfemur ltibia
    ltibia lfoot
    lfoot ltoes
    rhipjoint rfemur
    rfemur rtibia
    rtibia rfoot
    rfoot rtoes
    lowerback upperback
    upperback thorax
    thorax lowerneck lclavicle rclavicle
    lowerneck upperneck
    upperneck head
    lclavicle lhumerus
    lhumerus lradius
    lradius lwrist
    lwrist lhand lthumb
    lhand lfingers
    rclavicle rhumerus
    rhumerus rradius
    rradius rwrist
    rwrist rhand rthumb
    rhand rfingers
  end

#!OML:ASF H:\Terrain\Patient Classification 1\Animal1\Tuesday\Animal1.ASF
:FULLY-SPECIFIED
:DEGREES
62
root 12.4855 15.2682 -21.3171 5.03448 -10.2305 0.642811
lowerback 0.0640254 0.644126 0.816751
upperback -6.11837 0.96836 1.65619
thorax -6.40091 0.481818 1.21265
lowerneck -10.5556 0.299745 -3.61551
upperneck 22.7175 -0.105215 5.19105
head 8.82114 0.171747 2.36344
rclavicle 3.17062e-014 7.15625e-015
rhumerus 3.09028 61.7307 7.27113
rradius 133.846
rwrist -35.8332
rhand -13.4683 41.3632
rfingers 7.12502
rthumb 12.6417 11.7658
lclavicle 3.17062e-014 7.15625e-015
lhumerus -36.0906 -60.6934 30.9113
lradius 134.378
lwrist -1.46358
lhand 7.73306 19.1591
lfingers 7.12502
lthumb 32.9732 46.1649
rfemur -43.0244 18.86 3.84555
rtibia 37.327
rfoot -8.04384 -20.0476
rtoes 8.66327
lfemur -18.5806 -9.45233 -29.0111
ltibia 43.1045
lfoot -25.0978 16.8028
ltoes 4.89473
63
root 12.471 15.2659 -21.2879 5.16261 -10.4852 0.473738
lowerback 0.0176948 0.714228 1.08712
upperback -6.14224 1.06705 1.58073
thorax -6.39481 0.513619 0.977722
lowerneck -10.553 0.339897 -3.57288
upperneck 22.5255 -0.0974248 5.39089
head 8.75386 0.199421 2.42144
rclavicle 2.76311e-014 -1.11319e-014
rhumerus 0.707075 60.2726 4.1987
rradius 134.055
rwrist -37.3493
rhand -13.2618 41.6725
rfingers 7.12502
rthumb 12.8408 12.0874
lclavicle 2.76311e-014 -1.11319e-014
lhumerus -36.3909 -58.6602 31.3906
lradius 134.686
lwrist -0.210664
lhand 8.06505 19.4722
lfingers 7.12502
lthumb 33.2889 46.411
rfemur -43.2876 19.1965 3.75778
rtibia 36.9353
rfoot -8.06269 -20.2453
rtoes 6.58848
lfemur -18.6592 -9.23488 -28.8102
ltibia 43.2104
lfoot -24.8971 17.1248
ltoes 3.06173
64
root 12.4563 15.268 -21.257 5.42182 -10.5797 0.268508
lowerback -0.0724833 0.712222 1.35157
upperback -6.21814 1.07257 1.58146
thorax -6.41944 0.501637 0.831291
lowerneck -10.9145 0.41784 -3.46107
upperneck 22.6625 -0.00189638 5.37483
head 8.86385 0.256805 2.41291
rclavicle -2.71341e-014 -4.77083e-015
rhumerus -1.64862 58.6996 1.00968
rradius 134.313
rwrist -38.9343
rhand -15.0124 40.5095
rfingers 7.12502
rthumb 11.1528 10.8258
lclavicle -2.71341e-014 -4.77083e-015
lhumerus -36.5602 -56.1757 32.0731
lradius 134.853
lwrist 1.63704
lhand 7.85149 19.919
lfingers 7.12502
lthumb 33.0858 46.901
rfemur -43.5473 19.4775 3.65066
rtibia 36.445
rfoot -9.02034 -20.2667
rtoes 9.72102
lfemur -18.8044 -9.1708 -28.5383
ltibia 43.3206
lfoot -24.6261 17.6695
ltoes 0.376744
65
root 12.441 15.2682 -21.229 5.57152 -10.6064 0.186833
lowerback -0.00211752 0.706057 1.46634
upperback -6.29626 1.07115 1.57029
thorax -6.54138 0.493518 0.754767
lowerneck -11.0497 0.428792 -3.26734
upperneck 22.5819 0.0348108 5.14146
head 8.86106 0.267647 2.30363
rclavicle 8.74653e-015 -2.06736e-014
rhumerus -4.57939 56.7569 -2.80164
rradius 134.731
rwrist -40.5023
rhand -16.9423 38.4494
rfingers 7.12502
rthumb 9.29099 8.67413
lclavicle 8.74653e-015 -2.06736e-014
lhumerus -36.7626 -53.2755 32.8648
lradius 135.093
lwrist 4.02866
lhand 7.381 20.3673
lfingers 7.12502
lthumb 32.6383 47.4431
rfemur -43.6868 19.8684 3.36248
rtibia 35.9144
rfoot -9.61652 -20.3743
rtoes 11.9162
lfemur -18.8431 -9.2254 -28.4082
ltibia 43.4093
lfoot -24.6251 17.9414
ltoes -0.400152
66
root 12.4238 15.2682 -21.2013 5.56811 -10.6664 0.0950482
lowerback 0.0936951 0.676359 1.58142
upperback -6.24265 1.03663 1.56255
thorax -6.53731 0.469879 0.683297
lowerneck -11.0201 0.442274 -3.14939
upperneck 22.2039 0.062667 5.05137
head 8.7255 0.280287 2.24833
rclavicle -1.30204e-014 -8.74653e-015
rhumerus -7.5427 53.9446 -6.85474
rradius 135.135
rwrist -42.3302
rhand -17.133 38.1952
rfingers 7.12502
rthumb 9.10699 8.41177
lclavicle -1.30204e-014 -8.74653e-015
lhumerus -37.0432 -49.6181 33.6836
lradius 135.513
lwrist 6.71532
lhand 7.55945 20.4556
lfingers 7.12502
lthumb 32.808 47.4961
rfemur -43.6638 20.4288 3.11315
rtibia 35.4135
rfoot -9.24296 -20.71
rtoes 11.2557
lfemur -18.7024 -9.27818 -28.2805
ltibia 43.442
lfoot -25.0133 17.6556
ltoes 1.44753
67
root 12.4032 15.2728 -21.1694 5.66587 -10.8613 -0.0273041
lowerback 0.0519485 0.647179 1.60289
upperback -6.20129 1.00034 1.64669
thorax -6.47047 0.453628 0.761458
lowerneck -11.0643 0.50818 -3.25039
upperneck 21.9246 0.171413 5.1165
head 8.63275 0.329855 2.29413
rclavicle -1.2424e-014 -1.51076e-014
rhumerus -9.97312 50.4905 -10.5214
rradius 135.334
rwrist -43.9612
rhand -15.8848 40.2614
rfingers 7.12502
rthumb 10.3113 10.5342
lclavicle -1.2424e-014 -1.51076e-014
lhumerus -37.4489 -45.4616 34.7878
lradius 136.03
lwrist 9.66371
lhand 8.27291 20.5195
lfingers 7.12502
lthumb 33.4865 47.4158
rfemur -43.8145 21.0037 2.88235
rtibia 34.9396
rfoot -9.47304 -20.7231
rtoes 12.9531
lfemur -18.6491 -9.13822 -28.0978
ltibia 43.4458
lfoot -25.1692 17.5705
ltoes 1.87294
68
root 12.3822 15.2789 -21.1376 5.80383 -11.0792 0.0742297
lowerback 0.153035 0.649585 1.42564
upperback -6.3059 1.00088 1.62963
thorax -6.64294 0.462057 0.841867
lowerneck -11.1362 0.566718 -3.26444
upperneck 21.812 0.261463 5.11836
head 8.6034 0.371991 2.30504
rclavicle -4.1049e-014 -2.94201e-014
rhumerus -12.5763 46.9689 -14.4586
rradius 135.584
rwrist -45.1325
rhand -15.8171 40.6404
rfingers 7.12502
rthumb 10.3766 10.9164
lclavicle -4.1049e-014 -2.94201e-014
lhumerus -38.0017 -41.2662 36.2435
lradius 136.619
lwrist 12.6382
lhand 8.71427 21.2521
lfingers 7.12502
lthumb 33.9059 48.0567
rfemur -44.0913 21.3351 2.48225
rtibia 34.5412
rfoot -9.57958 -20.5328
rtoes 13.3183
lfemur -18.6345 -8.99847 -28.1436
ltibia 43.4097
lfoot -25.0478 17.7725
ltoes 0.65354
69
root 12.3601 15.2818 -21.1065 5.87583 -11.154 -0.0316345
lowerback 0.3997 0.617931 1.53606
upperback -6.38841 0.969418 1.59626
thorax -6.87165 0.43784 0.744984
lowerneck -11.1872 0.614653 -3.13955
upperneck 21.6326 0.313604 5.10259
head 8.55009 0.405419 2.28102
rclavicle 5.76476e-015 1.98785e-014
rhumerus -15.2853 43.2859 -18.7489
rradius 136.057
rwrist -46.2936
rhand -17.324 37.4897
rfingers 7.12502
rthumb 8.9227 7.69836
lclavicle 5.76476e-015 1.98785e-014
lhumerus -38.534 -36.8718 37.7583
lradius 137.255
lwrist 15.7468
lhand 8.79159 21.932
lfingers 7.12502
lthumb 33.9793 48.7204
rfemur -44.213 21.5517 2.43826
rtibia 34.257
rfoot -9.42709 -20.5022
rtoes 11.9641
lfemur -18.4894 -8.93471 -27.9782
ltibia 43.3455
lfoot -24.8063 18.0364
ltoes -1.40287
70
root 12.3375 15.2845 -21.0723 6.04569 -11.1561 -0.189763
lowerback 0.446646 0.575255 1.6619
upperback -6.47118 0.921447 1.61518
thorax -6.98633 0.406535 0.69722
lowerneck -11.221 0.624846 -3.04645
upperneck 21.4258 0.333109 5.02872
head 8.48616 0.414595 2.23873
rclavicle -5.96354e-016 -1.35174e-014
rhumerus -17.7344 39.2163 -22.6199
rradius 136.677
rwrist -47.7239
rhand -16.0802 39.7667
rfingers 7.12502
rthumb 10.1228 10.0302
lclavicle -5.96354e-016 -1.35174e-014
lhumerus -39.2154 -32.2446 39.2556
lradius 138.087
lwrist 18.8995
lhand 8.7688 22.2696
lfingers 7.12502
lthumb 33.9577 49.0627
rfemur -44.4107 21.6282 2.48808
rtibia 34.0574
rfoot -9.91771 -20.4822
rtoes 11.4398
lfemur -18.4404 -8.96586 -27.7422
ltibia 43.2716
lfoot -24.6934 18.0456
ltoes -2.22296
71
root 12.3135 15.2927 -21.0363 6.37712 -11.2193 -0.126499
lowerback 0.333455 0.585323 1.56099
upperback -6.66584 0.927373 1.55054
thorax -7.13 0.411839 0.687082
lowerneck -11.1954 0.615668 -2.79525
upperneck 21.2802 0.332478 4.76352
head 8.43465 0.406986 2.10378
rclavicle -1.0138e-014 -1.90833e-014
rhumerus -20.0467 34.7671 -26.0602
rradius 137.349
rwrist -49.2749
rhand -15.1959 39.8887
rfingers 7.12502
rthumb 10.9758 10.1956
lclavicle -1.0138e-014 -1.90833e-014
lhumerus -39.8633 -27.4371 40.5927
lradius 139.061
lwrist 21.8836
lhand 8.89059 22.8001
lfingers 7.12502
lthumb 34.0734 49.5676
rfemur -44.8497 21.6316 2.23681
rtibia 33.9131
rfoot -10.5164 -20.0778
rtoes 11.4791
lfemur -18.6243 -9.00961 -27.6803
ltibia 43.1962
lfoot -25.0261 17.5923
ltoes -0.326834
72
root 12.2883 15.2988 -20.9999 6.68243 -11.2732 -0.141701
lowerback 0.234766 0.5605 1.53351
upperback -6.7962 0.889967 1.51002
thorax -7.21259 0.392671 0.663626
lowerneck -11.1979 0.643351 -2.56596
upperneck 21.1555 0.371026 4.57083
head 8.39331 0.423692 2.00198
rclavicle 1.66979e-014 2.38542e-015
rhumerus -21.9439 29.9097 -29.3636
rradius 138.051
rwrist -50.9854
rhand -14.9042 38.7356
rfingers 7.12502
rthumb 11.2572 9.05766
lclavicle 1.66979e-014 2.38542e-015
lhumerus -40.4396 -22.1672 41.7909
lradius 140.116
lwrist 24.7963
lhand 9.41418 23.5234
lfingers 7.12502
lthumb 34.5705 50.1787
rfemur -45.2402 21.7521 2.05446
rtibia 33.83
rfoot -10.7853 -19.7628
rtoes 11.4276
lfemur -18.7682 -9.05553 -27.5299
ltibia 43.1213
lfoot -25.254 17.3306
ltoes 0.70025
